<svg width="16" height="16" viewBox="0 0 16 16" fill="none" xmlns="http://www.w3.org/2000/svg">
<path d="M13.3334 8V14.6667H2.66669V8" stroke="white" stroke-width="1.5" stroke-linecap="round" stroke-linejoin="round"/>
<path d="M14.6666 4.66666H1.33331V8H14.6666V4.66666Z" stroke="white" stroke-width="1.5" stroke-linecap="round" stroke-linejoin="round"/>
<path d="M8 14.6667V4.66666" stroke="#44B3FF" stroke-width="1.5" stroke-linecap="round" stroke-linejoin="round"/>
<path d="M8 4.66667H11C11.442 4.66667 11.866 4.49107 12.1785 4.17851C12.4911 3.86595 12.6667 3.44203 12.6667 3C12.6667 2.55797 12.4911 2.13405 12.1785 1.82149C11.866 1.50893 11.442 1.33334 11 1.33334C8.66667 1.33334 8 4.66667 8 4.66667Z" stroke="#44B3FF" stroke-width="1.5" stroke-linecap="round" stroke-linejoin="round"/>
<path d="M7.99998 4.66667H4.99998C4.55795 4.66667 4.13403 4.49107 3.82147 4.17851C3.50891 3.86595 3.33331 3.44203 3.33331 3C3.33331 2.55797 3.50891 2.13405 3.82147 1.82149C4.13403 1.50893 4.55795 1.33334 4.99998 1.33334C7.33331 1.33334 7.99998 4.66667 7.99998 4.66667Z" stroke="#44B3FF" stroke-width="1.5" stroke-linecap="round" stroke-linejoin="round"/>
</svg>
