<svg width="16" height="16" viewBox="0 0 16 16" fill="none" xmlns="http://www.w3.org/2000/svg">
<path d="M12.6666 8.00004H7.99998V3.33337C7.99998 2.93337 7.73331 2.66671 7.33331 2.66671C3.99998 2.66671 1.33331 5.33337 1.33331 8.66671C1.33331 12 3.99998 14.6667 7.33331 14.6667C10.6666 14.6667 13.3333 12 13.3333 8.66671C13.3333 8.26671 13.0666 8.00004 12.6666 8.00004ZM7.99998 13.2667C5.46665 13.6667 3.06665 11.8667 2.73331 9.33337C2.33331 6.80004 4.13331 4.40004 6.66665 4.06671V8.66671C6.66665 9.06671 6.93331 9.33337 7.33331 9.33337H11.9333C11.6666 11.4 10.0666 13 7.99998 13.2667ZM9.99998 1.33337C9.59998 1.33337 9.33331 1.60004 9.33331 2.00004V6.00004C9.33331 6.40004 9.59998 6.66671 9.99998 6.66671H14C14.4 6.66671 14.6666 6.40004 14.6666 6.00004C14.6666 3.40004 12.6 1.33337 9.99998 1.33337ZM10.6666 5.33337V2.73337C12 3.00004 13 4.00004 13.2666 5.33337H10.6666Z" fill="#0099FF"/>
</svg>
